<svg id="Layer_1" data-name="Layer 1" xmlns="http://www.w3.org/2000/svg" viewBox="0 0 25 25"><title>github</title><path d="M0,13.19v-.79c0-.11,0-.23,0-.34A11.81,11.81,0,0,1,.35,9.84,12.41,12.41,0,0,1,4.64,3.09,12.4,12.4,0,0,1,11.76.33l.34,0H13a12,12,0,0,1,1.49.14,12.53,12.53,0,0,1,9.77,8.05A12.25,12.25,0,0,1,25,12.07c0,.12,0,.23,0,.35v.76s0,0,0,.07a12.47,12.47,0,0,1-.73,3.8,12.53,12.53,0,0,1-6,6.83,9,9,0,0,1-2,.81h-.19a.56.56,0,0,1-.4-.23A.69.69,0,0,1,15.6,24q0-1.73,0-3.47a3.82,3.82,0,0,0-.12-1,2.55,2.55,0,0,0-.61-1.16l-.09-.1h0c.35-.05.7-.1,1-.16a6.82,6.82,0,0,0,2-.7,4.59,4.59,0,0,0,1.37-1.13,5.23,5.23,0,0,0,1-2.2,8.91,8.91,0,0,0,.2-1.71A5.65,5.65,0,0,0,20.34,11a4.75,4.75,0,0,0-1.11-2.12.09.09,0,0,1,0-.11,3.79,3.79,0,0,0,.22-1.17,5,5,0,0,0-.35-2A.08.08,0,0,0,19,5.48a2.1,2.1,0,0,0-.7,0A5.42,5.42,0,0,0,17,6a10.86,10.86,0,0,0-1.29.75.11.11,0,0,1-.1,0,11.81,11.81,0,0,0-2.34-.38A12,12,0,0,0,11,6.45a10.83,10.83,0,0,0-1.57.31.12.12,0,0,1-.11,0c-.35-.21-.7-.44-1.06-.63a5.47,5.47,0,0,0-1.51-.58,2.17,2.17,0,0,0-.76,0,.1.1,0,0,0-.09.07,5.17,5.17,0,0,0-.34,1.51,4.08,4.08,0,0,0,.22,1.68.08.08,0,0,1,0,.1,4.81,4.81,0,0,0-1.25,3.22,9.42,9.42,0,0,0,.08,1.42,6.37,6.37,0,0,0,.53,1.87A4.52,4.52,0,0,0,6.8,17.27a5.88,5.88,0,0,0,1.42.66,9.34,9.34,0,0,0,1.54.35l.45.06,0,0a2.15,2.15,0,0,0-.48.66,3.16,3.16,0,0,0-.27.91.1.1,0,0,1-.07.09c-.23.07-.45.16-.68.22a2.64,2.64,0,0,1-1.38,0,2.43,2.43,0,0,1-1.32-1c-.13-.18-.24-.38-.38-.56a2.52,2.52,0,0,0-1.37-1,1.34,1.34,0,0,0-.73,0c-.23.07-.28.21-.11.38a2.08,2.08,0,0,0,.39.33,2.8,2.8,0,0,1,.57.47,4.26,4.26,0,0,1,.8,1.33,2.37,2.37,0,0,0,.72,1,3.14,3.14,0,0,0,1.8.67,5.57,5.57,0,0,0,1.47-.1l.23,0s0,.06,0,.08q0,.72,0,1.44c0,.28,0,.55,0,.83a.56.56,0,0,1-.33.52.74.74,0,0,1-.56,0,11.5,11.5,0,0,1-1.76-.74A12.53,12.53,0,0,1,.62,16.7,12.3,12.3,0,0,1,0,13.53C0,13.42,0,13.31,0,13.19Z"/></svg>