<svg id="Layer_1" data-name="Layer 1" xmlns="http://www.w3.org/2000/svg" viewBox="0 0 25 25"><title>twitter</title><g id="_4OBHfx" data-name="4OBHfx"><path d="M7.56,18.25A5.17,5.17,0,0,1,4.09,16.8a5,5,0,0,1-1.32-2.12,5,5,0,0,0,2.29-.09A5.18,5.18,0,0,1,1,9.48a5,5,0,0,0,2.31.63A5.18,5.18,0,0,1,1.7,3.26,14.69,14.69,0,0,0,6.43,7.07,14.52,14.52,0,0,0,12.3,8.63c0-.15-.06-.29-.08-.43a5.44,5.44,0,0,1,0-1.17,5,5,0,0,1,.34-1.48,5.1,5.1,0,0,1,2.37-2.64,5,5,0,0,1,1.64-.54,5.18,5.18,0,0,1,1.26,0A5.12,5.12,0,0,1,21,3.89a.12.12,0,0,0,.13,0,10.13,10.13,0,0,0,2.39-.81c.25-.12.49-.26.73-.39l0,0A5.17,5.17,0,0,1,22.1,5.53,10.42,10.42,0,0,0,25,4.75l-.13.19a10.48,10.48,0,0,1-2.08,2.19l-.29.22a.09.09,0,0,0,0,.08c0,.28,0,.57,0,.85s0,.65-.05,1A13.71,13.71,0,0,1,22,11.48a15.34,15.34,0,0,1-.9,2.63,15.25,15.25,0,0,1-1.6,2.76,14.39,14.39,0,0,1-1.42,1.66,14,14,0,0,1-8,4c-.38.05-.77.09-1.16.12a14.16,14.16,0,0,1-1.65,0,13.9,13.9,0,0,1-1.88-.19,14.48,14.48,0,0,1-4-1.27,14.93,14.93,0,0,1-1.41-.78l-.06,0A10.36,10.36,0,0,0,7.56,18.25Z"/></g></svg>